<?xml version="1.0" standalone="no"?>
<!DOCTYPE svg PUBLIC "-//W3C//DTD SVG 20010904//EN"
 "http://www.w3.org/TR/2001/REC-SVG-20010904/DTD/svg10.dtd">
<svg version="1.0" xmlns="http://www.w3.org/2000/svg"
 width="510.000000pt" height="510.000000pt" viewBox="0 0 510.000000 510.000000"
 preserveAspectRatio="xMidYMid meet">
<metadata>
Created by potrace 1.14, written by Peter Selinger 2001-2017
</metadata>
<g transform="translate(0.000000,510.000000) scale(0.100000,-0.100000)"
fill="#000000" stroke="none">
<path d="M2098 3930 c-144 -27 -191 -43 -333 -111 -266 -129 -500 -381 -608
-656 -13 -33 -22 -43 -39 -44 -13 0 -241 -1 -508 -1 l-485 -1 1 -656 c1 -361
2 -659 3 -663 0 -4 171 -7 379 -6 l377 2 61 -42 c271 -186 905 -375 1589 -472
44 -6 91 -13 105 -15 34 -6 164 -23 225 -30 28 -3 66 -8 85 -10 19 -3 62 -7
95 -10 33 -3 74 -8 90 -10 17 -2 64 -7 105 -10 128 -10 193 -15 240 -20 25 -2
99 -7 165 -10 66 -3 154 -8 195 -10 192 -11 505 -18 820 -19 l345 -2 5 36 c3
19 4 237 2 483 -2 347 -5 447 -15 446 -38 -5 -37 -15 -37 510 l0 508 -340 1
c-306 0 -341 -2 -349 -17 -5 -9 -29 -88 -54 -176 -25 -88 -50 -171 -54 -183
-8 -20 -17 3 -52 125 -23 81 -50 171 -58 200 l-16 51 -251 0 c-138 0 -257 0
-264 1 -7 1 -22 22 -32 49 -67 159 -151 283 -280 412 -177 176 -351 275 -592
336 -139 35 -374 41 -520 14z"/>
</g>
</svg>
